# xmcd
#
# Track frame offsets:
#	150
#	16097
#	33520
#	49195
#	67302
#	80102
#	97420
#	110645
#	130210
#	146927
#	162105
#	181060
#	200052
#	210735
#
# Disc length: 3015 seconds
#
# Revision: 13
# Processed by: cddbd v1.5.2PL0 Copyright (c) Steve Scherf et al.
# Submitted via: EZCDAudioConverter 2.4.0.1
#
DISCID=d90bc50e
DTITLE=Chitãozinho and Xororó - Na Aba Do Meu Chápeu
DYEAR=1998
DGENRE=Sertanejo
TTITLE0=Deixei De Ser Cowboy Por Ela
TTITLE1=Eu Menti
TTITLE2=Ai, Maria
TTITLE3=Por Esse Amor
TTITLE4=Na Aba do Meu Chápeu
TTITLE5=Te Esquecer É Impossível
TTITLE6=Saco De Ouro
TTITLE7=É Tarde Demais Pra Pedir Perdão
TTITLE8=Lágrimas
TTITLE9=Coração de Fora
TTITLE10=Enamorado e Sonhador
TTITLE11=Casa e Comida
TTITLE12=El Rey
TTITLE13=Pura Emoção
EXTD=
EXTT0=
EXTT1=
EXTT2=
EXTT3=
EXTT4=
EXTT5=
EXTT6=
EXTT7=
EXTT8=
EXTT9=
EXTT10=
EXTT11=
EXTT12=
EXTT13=
PLAYORDER=
